<svg width="400" height="400" viewBox="0 0 400 400" fill="none" xmlns="http://www.w3.org/2000/svg">
<g clip-path="url(#clip0_2540_1727)">
<circle cx="200.003" cy="200.003" r="192.003" stroke="#F59E0B" stroke-width="16"/>
<path d="M198.939 8C224.916 8.00015 250.175 27.3245 269.405 62.4229C288.473 97.2267 300.514 145.854 300.514 200.003C300.514 254.152 288.473 302.778 269.405 337.582C250.175 372.68 224.916 392.005 198.939 392.005C172.962 392.005 147.703 372.68 128.473 337.582C109.405 302.778 97.363 254.152 97.3629 200.003C97.3629 145.854 109.405 97.2267 128.473 62.4229C147.703 27.3245 172.962 8 198.939 8Z" stroke="#F59E0B" stroke-width="16"/>
<line x1="2.12763" y1="192.002" x2="400.005" y2="192.002" stroke="#F59E0B" stroke-width="16"/>
<line x1="197.322" y1="398.942" x2="197.322" y2="1.06421" stroke="#F59E0B" stroke-width="16"/>
</g>
<defs>
<clipPath id="clip0_2540_1727">
<rect width="400" height="400" fill="white"/>
</clipPath>
</defs>
</svg>
